<svg width="27" height="27" viewBox="0 0 27 27" fill="none" xmlns="http://www.w3.org/2000/svg">
<path d="M13.5 2.95312C11.414 2.95312 9.37489 3.57169 7.64047 4.73059C5.90604 5.8895 4.55422 7.5367 3.75596 9.46389C2.95769 11.3911 2.74882 13.5117 3.15578 15.5576C3.56273 17.6035 4.56722 19.4828 6.04223 20.9578C7.51724 22.4328 9.39651 23.4373 11.4424 23.8442C13.4883 24.2512 15.6089 24.0423 17.5361 23.244C19.4633 22.4458 21.1105 21.094 22.2694 19.3595C23.4283 17.6251 24.0469 15.586 24.0469 13.5C24.0438 10.7037 22.9316 8.02288 20.9544 6.04562C18.9771 4.06837 16.2963 2.9562 13.5 2.95312ZM13.5 23.2031C11.5809 23.2031 9.7049 22.634 8.10923 21.5679C6.51356 20.5017 5.26989 18.9862 4.53548 17.2132C3.80107 15.4402 3.60892 13.4892 3.98331 11.607C4.35771 9.72479 5.28185 7.99586 6.63885 6.63885C7.99586 5.28185 9.72479 4.35772 11.607 3.98332C13.4892 3.60892 15.4402 3.80107 17.2132 4.53548C18.9862 5.26989 20.5017 6.51356 21.5679 8.10923C22.634 9.7049 23.2031 11.5809 23.2031 13.5C23.2003 16.0726 22.1771 18.539 20.3581 20.3581C18.539 22.1771 16.0726 23.2003 13.5 23.2031ZM18.0837 18.3516C18.1395 18.4484 18.1547 18.5634 18.1258 18.6713C18.0969 18.7793 18.0264 18.8714 17.9297 18.9274C17.8657 18.9649 17.7929 18.9846 17.7187 18.9844C17.6448 18.9843 17.7828 19.0214 17.7187 18.9844L13.2363 18.9124H9.07902C8.98481 18.8579 8.91529 18.7692 8.88497 18.6647C8.85466 18.5602 8.86589 18.448 8.91633 18.3516C9.92355 16.6092 11.5952 15.6094 13.5 15.6094C15.4048 15.6094 17.0764 16.6092 18.0837 18.3516Z" fill="currentColor"/>
<path d="M18.3157 11.8125L19.7047 10.4235C19.7439 10.3843 19.775 10.3378 19.7962 10.2865C19.8174 10.2353 19.8284 10.1804 19.8284 10.125C19.8284 10.0696 19.8174 10.0147 19.7962 9.96347C19.775 9.91226 19.7439 9.86572 19.7047 9.82653C19.6655 9.78733 19.619 9.75624 19.5678 9.73503C19.5166 9.71381 19.4617 9.70289 19.4063 9.70289C19.3508 9.70289 19.2959 9.71381 19.2447 9.73503C19.1935 9.75624 19.147 9.78733 19.1078 9.82653L17.7188 11.2156L16.3297 9.82653C16.2506 9.74737 16.1432 9.70289 16.0313 9.70289C15.9193 9.70289 15.8119 9.74737 15.7328 9.82653C15.6536 9.90569 15.6091 10.0131 15.6091 10.125C15.6091 10.237 15.6536 10.3443 15.7328 10.4235L17.1218 11.8125L15.7328 13.2015C15.6536 13.2807 15.6091 13.3881 15.6091 13.5C15.6091 13.612 15.6536 13.7193 15.7328 13.7985C15.8119 13.8776 15.9193 13.9221 16.0313 13.9221C16.1432 13.9221 16.2506 13.8776 16.3297 13.7985L17.7188 12.4095L19.1078 13.7985C19.1869 13.8776 19.2943 13.9221 19.4063 13.9221C19.5182 13.9221 19.6256 13.8776 19.7047 13.7985C19.7839 13.7193 19.8284 13.612 19.8284 13.5C19.8284 13.3881 19.7839 13.2807 19.7047 13.2015L18.3157 11.8125Z" fill="currentColor"/>
<path d="M10.0944 11.8125L11.4834 10.4235C11.5226 10.3843 11.5537 10.3378 11.5749 10.2865C11.5961 10.2353 11.607 10.1804 11.607 10.125C11.607 10.0696 11.5961 10.0147 11.5749 9.96347C11.5537 9.91226 11.5226 9.86572 11.4834 9.82653C11.4442 9.78733 11.3976 9.75624 11.3464 9.73503C11.2952 9.71381 11.2403 9.70289 11.1849 9.70289C11.1295 9.70289 11.0746 9.71381 11.0234 9.73503C10.9722 9.75624 10.9256 9.78733 10.8864 9.82653L9.4974 11.2156L8.10838 9.82653C8.02922 9.74737 7.92185 9.70289 7.8099 9.70289C7.69795 9.70289 7.59059 9.74737 7.51143 9.82653C7.43226 9.90569 7.38779 10.0131 7.38779 10.125C7.38779 10.237 7.43226 10.3443 7.51143 10.4235L8.90045 11.8125L7.51143 13.2015C7.43226 13.2807 7.38779 13.3881 7.38779 13.5C7.38779 13.612 7.43226 13.7193 7.51143 13.7985C7.59059 13.8776 7.69795 13.9221 7.8099 13.9221C7.92185 13.9221 8.02922 13.8776 8.10838 13.7985L9.4974 12.4095L10.8864 13.7985C10.9656 13.8776 11.073 13.9221 11.1849 13.9221C11.2969 13.9221 11.4042 13.8776 11.4834 13.7985C11.5625 13.7193 11.607 13.612 11.607 13.5C11.607 13.3881 11.5625 13.2807 11.4834 13.2015L10.0944 11.8125Z" fill="currentColor"/>
</svg>
