<svg width="27" height="27" viewBox="0 0 27 27" fill="none" xmlns="http://www.w3.org/2000/svg">
<path d="M13.5 2.95312C11.414 2.95312 9.3749 3.57169 7.64048 4.73059C5.90605 5.8895 4.55423 7.5367 3.75596 9.46389C2.95769 11.3911 2.74883 13.5117 3.15579 15.5576C3.56274 17.6035 4.56723 19.4828 6.04224 20.9578C7.51725 22.4328 9.39652 23.4373 11.4424 23.8442C13.4883 24.2512 15.6089 24.0423 17.5361 23.244C19.4633 22.4458 21.1105 21.094 22.2694 19.3595C23.4283 17.6251 24.0469 15.586 24.0469 13.5C24.0438 10.7037 22.9316 8.02288 20.9544 6.04562C18.9771 4.06837 16.2963 2.9562 13.5 2.95312ZM13.5 23.2031C11.5809 23.2031 9.70491 22.634 8.10924 21.5679C6.51357 20.5017 5.26989 18.9862 4.53549 17.2132C3.80108 15.4402 3.60893 13.4892 3.98332 11.607C4.35772 9.72479 5.28185 7.99586 6.63886 6.63885C7.99587 5.28185 9.7248 4.35772 11.607 3.98332C13.4892 3.60892 15.4402 3.80107 17.2132 4.53548C18.9862 5.26989 20.5017 6.51356 21.5679 8.10923C22.6341 9.7049 23.2031 11.5809 23.2031 13.5C23.2003 16.0726 22.1772 18.539 20.3581 20.3581C18.539 22.1771 16.0726 23.2003 13.5 23.2031ZM8.85938 11.3906C8.85938 11.2237 8.90887 11.0606 9.00158 10.9219C9.09429 10.7831 9.22607 10.675 9.38024 10.6111C9.53442 10.5472 9.70407 10.5305 9.86774 10.5631C10.0314 10.5956 10.1818 10.676 10.2998 10.794C10.4178 10.912 10.4981 11.0623 10.5307 11.226C10.5632 11.3897 10.5465 11.5593 10.4827 11.7135C10.4188 11.8677 10.3106 11.9995 10.1719 12.0922C10.0331 12.1849 9.87001 12.2344 9.70313 12.2344C9.47935 12.2344 9.26474 12.1455 9.10651 11.9872C8.94828 11.829 8.85938 11.6144 8.85938 11.3906ZM18.0837 16.2422C17.0765 17.9845 15.4058 18.9844 13.5 18.9844C11.5942 18.9844 9.92356 17.9845 8.91633 16.2422C8.8659 16.1458 8.85466 16.0336 8.88498 15.9291C8.9153 15.8246 8.98482 15.7358 9.07902 15.6814V15.7002L13.8697 15.6814L17.6101 15.6107C17.6648 15.5948 17.722 15.5902 17.7785 15.5971C17.835 15.6039 17.8895 15.6221 17.9388 15.6506C17.988 15.6791 18.031 15.7172 18.0652 15.7628C18.0993 15.8083 18.1239 15.8602 18.1374 15.9155C18.1509 15.9708 18.1532 16.0282 18.1439 16.0843C18.1347 16.1405 18.1142 16.1942 18.0837 16.2422Z" fill="currentColor"/>
<path d="M16.6148 10.9219C16.5221 11.0606 16.4726 11.2237 16.4726 11.3906C16.4726 11.6144 16.5615 11.829 16.7198 11.9872C16.878 12.1455 17.0926 12.2344 17.3164 12.2344C17.4833 12.2344 17.6464 12.1849 17.7852 12.0922C17.9239 11.9995 18.0321 11.8677 18.0959 11.7135C18.1598 11.5593 18.1765 11.3897 18.1439 11.226C18.1114 11.0623 18.031 10.912 17.913 10.794C17.795 10.676 17.6447 10.5956 17.481 10.5631C17.3173 10.5305 17.1477 10.5472 16.9935 10.6111C16.8393 10.675 16.7076 10.7831 16.6148 10.9219Z" fill="currentColor"/>
</svg>
