<svg width="27" height="27" viewBox="0 0 27 27" fill="none" xmlns="http://www.w3.org/2000/svg">
<path d="M18.0837 16.2422C17.0765 17.9845 15.4058 18.9844 13.5 18.9844C11.5942 18.9844 9.92356 17.9845 8.91633 16.2422C8.8659 16.1458 8.85466 16.0336 8.88498 15.9291C8.9153 15.8246 8.98482 15.7358 9.07902 15.6814L13.6055 15.6506L17.6101 15.6107C17.6648 15.5948 17.722 15.5902 17.7785 15.5971C17.835 15.6039 17.8895 15.6221 17.9388 15.6506C17.988 15.6791 18.031 15.7172 18.0652 15.7628C18.0993 15.8083 18.1239 15.8602 18.1374 15.9155C18.1509 15.9708 18.1532 16.0282 18.1439 16.0843C18.1347 16.1405 18.1142 16.1942 18.0837 16.2422ZM24.0469 13.5C24.0469 15.586 23.4283 17.6251 22.2694 19.3595C21.1105 21.094 19.4633 22.4458 17.5361 23.244C15.6089 24.0423 13.4883 24.2512 11.4424 23.8442C9.39652 23.4373 7.51725 22.4328 6.04224 20.9578C4.56723 19.4828 3.56274 17.6035 3.15579 15.5576C2.74883 13.5117 2.95769 11.3911 3.75596 9.46389C4.55423 7.5367 5.90605 5.8895 7.64048 4.73059C9.3749 3.57169 11.414 2.95313 13.5 2.95312C16.2963 2.9562 18.9771 4.06837 20.9544 6.04562C22.9316 8.02288 24.0438 10.7037 24.0469 13.5ZM23.2031 13.5C23.2031 11.5809 22.6341 9.7049 21.5679 8.10923C20.5017 6.51356 18.9862 5.26989 17.2132 4.53548C15.4402 3.80107 13.4892 3.60892 11.607 3.98332C9.7248 4.35772 7.99587 5.28185 6.63886 6.63885C5.28185 7.99586 4.35772 9.72479 3.98332 11.607C3.60893 13.4892 3.80108 15.4402 4.53549 17.2132C5.26989 18.9862 6.51357 20.5017 8.10924 21.5679C9.70491 22.634 11.5809 23.2031 13.5 23.2031C16.0726 23.2003 18.539 22.1771 20.3581 20.3581C22.1772 18.539 23.2003 16.0726 23.2031 13.5Z" fill="currentColor"/>
<path d="M18.8608 11.6889C18.9399 11.6098 18.9844 11.5025 18.9844 11.3906C18.9844 11.2787 18.9399 11.1714 18.8608 11.0923C18.7817 11.0132 18.6744 10.9688 18.5625 10.9688H16.0313C15.9194 10.9688 15.8121 11.0132 15.7329 11.0923C15.6538 11.1714 15.6094 11.2787 15.6094 11.3906C15.6094 11.5025 15.6538 11.6098 15.7329 11.6889C15.8121 11.7681 15.9194 11.8125 16.0313 11.8125H18.5625C18.6744 11.8125 18.7817 11.7681 18.8608 11.6889Z" fill="currentColor"/>
<path d="M10.5815 11.6889C10.6606 11.6098 10.7051 11.5025 10.7051 11.3906C10.7051 11.2787 10.6606 11.1714 10.5815 11.0923C10.5024 11.0132 10.3951 10.9688 10.2832 10.9688H7.75195C7.64007 10.9688 7.53276 11.0132 7.45364 11.0923C7.37453 11.1714 7.33008 11.2787 7.33008 11.3906C7.33008 11.5025 7.37453 11.6098 7.45364 11.6889C7.53276 11.7681 7.64007 11.8125 7.75195 11.8125H10.2832C10.3951 11.8125 10.5024 11.7681 10.5815 11.6889Z" fill="currentColor"/>
</svg>
