<svg width="27" height="27" viewBox="0 0 27 27" fill="none" xmlns="http://www.w3.org/2000/svg">
<path d="M13.5 2.95312C11.414 2.95312 9.3749 3.57169 7.64047 4.73059C5.90605 5.8895 4.55423 7.5367 3.75596 9.46389C2.95769 11.3911 2.74883 13.5117 3.15578 15.5576C3.56273 17.6035 4.56723 19.4828 6.04223 20.9578C7.51724 22.4328 9.39651 23.4373 11.4424 23.8442C13.4883 24.2512 15.6089 24.0423 17.5361 23.244C19.4633 22.4458 21.1105 21.094 22.2694 19.3595C23.4283 17.6251 24.0469 15.586 24.0469 13.5C24.0438 10.7037 22.9316 8.02288 20.9544 6.04562C18.9771 4.06837 16.2963 2.9562 13.5 2.95312ZM13.5 23.2031C11.5809 23.2031 9.7049 22.634 8.10923 21.5679C6.51356 20.5017 5.26989 18.9862 4.53548 17.2132C3.80108 15.4402 3.60892 13.4892 3.98332 11.607C4.35772 9.72479 5.28185 7.99586 6.63886 6.63885C7.99586 5.28185 9.72479 4.35771 11.607 3.98332C13.4892 3.60892 15.4402 3.80107 17.2132 4.53548C18.9862 5.26989 20.5017 6.51356 21.5679 8.10923C22.634 9.7049 23.2031 11.5809 23.2031 13.5C23.2003 16.0726 22.1771 18.539 20.3581 20.3581C18.539 22.1771 16.0726 23.2003 13.5 23.2031ZM8.85938 11.3906C8.85938 11.2237 8.90886 11.0606 9.00157 10.9219C9.09429 10.7831 9.22606 10.675 9.38024 10.6111C9.53441 10.5472 9.70406 10.5305 9.86773 10.5631C10.0314 10.5956 10.1817 10.676 10.2997 10.794C10.4177 10.912 10.4981 11.0623 10.5307 11.226C10.5632 11.3897 10.5465 11.5593 10.4826 11.7135C10.4188 11.8677 10.3106 11.9995 10.1719 12.0922C10.0331 12.1849 9.87 12.2344 9.70313 12.2344C9.47935 12.2344 9.26474 12.1455 9.1065 11.9872C8.94827 11.829 8.85938 11.6144 8.85938 11.3906ZM18.1406 11.3906C18.1406 11.5575 18.0911 11.7206 17.9984 11.8594C17.9057 11.9981 17.7739 12.1063 17.6198 12.1701C17.4656 12.234 17.2959 12.2507 17.1323 12.2182C16.9686 12.1856 16.8183 12.1052 16.7003 11.9872C16.5823 11.8692 16.5019 11.7189 16.4693 11.5552C16.4368 11.3916 16.4535 11.2219 16.5174 11.0677C16.5812 10.9136 16.6894 10.7818 16.8281 10.6891C16.9669 10.5964 17.13 10.5469 17.2969 10.5469C17.5207 10.5469 17.7353 10.6358 17.8935 10.794C18.0517 10.9522 18.1406 11.1668 18.1406 11.3906ZM18.0837 18.3516C18.1395 18.4484 18.1547 18.5634 18.1258 18.6713C18.0969 18.7793 18.0264 18.8714 17.9297 18.9274C17.8657 18.9649 17.7929 18.9846 17.7188 18.9844C17.6448 18.9843 17.7828 19.0214 17.7188 18.9844L13.2363 18.9124H9.07902C8.98482 18.8579 8.91529 18.7692 8.88498 18.6647C8.85466 18.5602 8.86589 18.448 8.91633 18.3516C9.92356 16.6092 11.5952 15.6094 13.5 15.6094C15.4048 15.6094 17.0764 16.6092 18.0837 18.3516Z" fill="#1D1D1E"/>
</svg>
